<svg xmlns="http://www.w3.org/2000/svg" xmlns:xlink="http://www.w3.org/1999/xlink" contentStyleType="text/css" data-diagram-type="ACTIVITY" height="761px" preserveAspectRatio="none" style="width:625px;height:761px;background:#FFFFFF;" version="1.1" viewBox="0 0 625 761" width="625px" zoomAndPan="magnify"><title>https://github.com/jbyuki/one-small-step-for-vimkind/blob/main/doc/osv.txt</title><defs/><g><g class="title" data-source-line="3"><text fill="#000000" font-family="sans-serif" font-size="14" font-weight="bold" lengthAdjust="spacing" textLength="582.7227" x="20" y="33.5352">https://github.com/jbyuki/one-small-step-for-vimkind/blob/main/doc/osv.txt</text></g><rect fill="none" height="21.1992" style="stroke:none;stroke-width:1;" width="494.7031" x="64.0098" y="49.7852"/><rect fill="#98FB98" height="700.1914" style="stroke:#98FB98;stroke-width:1;" width="247.6641" x="64.0098" y="49.7852"/><ellipse cx="188.8418" cy="85.9844" fill="#222222" rx="10" ry="10" style="stroke:#222222;stroke-width:1;"/><rect fill="#F1F1F1" height="34.1328" rx="12.5" ry="12.5" style="stroke:#181818;stroke-width:0.5;" width="61.1328" x="158.2754" y="115.9844"/><text fill="#000000" font-family="sans-serif" font-size="12" lengthAdjust="spacing" textLength="41.1328" x="168.2754" y="137.5859">open A</text><rect fill="#F1F1F1" height="48.2656" rx="12.5" ry="12.5" style="stroke:#181818;stroke-width:0.5;" width="237.6641" x="70.0098" y="170.1172"/><text fill="#000000" font-family="sans-serif" font-size="12" lengthAdjust="spacing" textLength="108.5273" x="80.0098" y="191.7188">Launch DAP server</text><text fill="#000000" font-family="sans-serif" font-size="12" lengthAdjust="spacing" textLength="217.6641" x="80.0098" y="205.8516">:lua require"osv".launch({port=8086})</text><rect fill="#F1F1F1" height="62.3984" rx="12.5" ry="12.5" style="stroke:#181818;stroke-width:0.5;" width="164.3457" x="106.6689" y="591.4453"/><text fill="#000000" font-family="sans-serif" font-size="12" lengthAdjust="spacing" textLength="95.0977" x="116.6689" y="613.0469">run myscript.lua</text><text fill="#000000" font-family="sans-serif" font-size="12" lengthAdjust="spacing" textLength="114.668" x="116.6689" y="627.1797">:luafile myscript.lua</text><text fill="#000000" font-family="sans-serif" font-size="12" lengthAdjust="spacing" textLength="144.3457" x="116.6689" y="641.3125">:luafile % -- (current file)</text><line style="stroke:#000000;stroke-width:1.5;" x1="64.0098" x2="64.0098" y1="49.7852" y2="749.9766"/><rect fill="#FFD700" height="700.1914" style="stroke:#FFD700;stroke-width:1;" width="245.1914" x="311.6738" y="49.7852"/><rect fill="#F1F1F1" height="34.1328" rx="12.5" ry="12.5" style="stroke:#181818;stroke-width:0.5;" width="59.7559" x="405.3916" y="238.3828"/><text fill="#000000" font-family="sans-serif" font-size="12" lengthAdjust="spacing" textLength="39.7559" x="415.3916" y="259.9844">open B</text><rect fill="#F1F1F1" height="34.1328" rx="12.5" ry="12.5" style="stroke:#181818;stroke-width:0.5;" width="124.3496" x="373.0947" y="292.5156"/><text fill="#000000" font-family="sans-serif" font-size="12" lengthAdjust="spacing" textLength="104.3496" x="383.0947" y="314.1172">open myscript.lua</text><rect fill="#F1F1F1" height="48.2656" rx="12.5" ry="12.5" style="stroke:#181818;stroke-width:0.5;" width="235.1914" x="317.6738" y="346.6484"/><text fill="#000000" font-family="sans-serif" font-size="12" lengthAdjust="spacing" textLength="97.3945" x="327.6738" y="368.25">place breakpoint</text><text fill="#000000" font-family="sans-serif" font-size="12" lengthAdjust="spacing" textLength="215.1914" x="327.6738" y="382.3828">:lua require"dap".toggle_breakpoint()</text><rect fill="#F1F1F1" height="34.1328" rx="12.5" ry="12.5" style="stroke:#181818;stroke-width:0.5;" width="90.1133" x="390.2129" y="414.9141"/><text fill="#000000" font-family="sans-serif" font-size="12" lengthAdjust="spacing" textLength="70.1133" x="400.2129" y="436.5156">&lt;leader&gt;db</text><rect fill="#F1F1F1" height="48.2656" rx="12.5" ry="12.5" style="stroke:#181818;stroke-width:0.5;" width="179.5977" x="345.4707" y="469.0469"/><text fill="#000000" font-family="sans-serif" font-size="12" lengthAdjust="spacing" textLength="155.6484" x="355.4707" y="490.6484">Attach DAP client to server</text><text fill="#000000" font-family="sans-serif" font-size="12" lengthAdjust="spacing" textLength="159.5977" x="355.4707" y="504.7813">:lua require"dap".continue()</text><rect fill="#F1F1F1" height="34.1328" rx="12.5" ry="12.5" style="stroke:#181818;stroke-width:0.5;" width="88.707" x="390.916" y="537.3125"/><text fill="#000000" font-family="sans-serif" font-size="12" lengthAdjust="spacing" textLength="68.707" x="400.916" y="558.9141">&lt;leader&gt;dc</text><rect fill="#F1F1F1" height="34.1328" rx="12.5" ry="12.5" style="stroke:#181818;stroke-width:0.5;" width="232.2559" x="319.1416" y="673.8438"/><text fill="#000000" font-family="sans-serif" font-size="12" lengthAdjust="spacing" textLength="212.2559" x="329.1416" y="695.4453">breakpoint hits and freezes instance</text><ellipse cx="435.2695" cy="738.9766" fill="none" rx="11" ry="11" style="stroke:#222222;stroke-width:1;"/><ellipse cx="435.2695" cy="738.9766" fill="#222222" rx="6" ry="6" style="stroke:#222222;stroke-width:1;"/><line style="stroke:#000000;stroke-width:1.5;" x1="311.6738" x2="311.6738" y1="49.7852" y2="749.9766"/><line style="stroke:#000000;stroke-width:1.5;" x1="556.8652" x2="556.8652" y1="49.7852" y2="749.9766"/><line style="stroke:#181818;stroke-width:1;" x1="188.8418" x2="188.8418" y1="95.9844" y2="115.9844"/><polygon fill="#181818" points="184.8418,105.9844,188.8418,115.9844,192.8418,105.9844,188.8418,109.9844" style="stroke:#181818;stroke-width:1;"/><line style="stroke:#181818;stroke-width:1;" x1="188.8418" x2="188.8418" y1="150.1172" y2="170.1172"/><polygon fill="#181818" points="184.8418,160.1172,188.8418,170.1172,192.8418,160.1172,188.8418,164.1172" style="stroke:#181818;stroke-width:1;"/><line style="stroke:#181818;stroke-width:1;" x1="435.2695" x2="435.2695" y1="272.5156" y2="292.5156"/><polygon fill="#181818" points="431.2695,282.5156,435.2695,292.5156,439.2695,282.5156,435.2695,286.5156" style="stroke:#181818;stroke-width:1;"/><line style="stroke:#181818;stroke-width:1;" x1="435.2695" x2="435.2695" y1="326.6484" y2="346.6484"/><polygon fill="#181818" points="431.2695,336.6484,435.2695,346.6484,439.2695,336.6484,435.2695,340.6484" style="stroke:#181818;stroke-width:1;"/><line style="stroke:#181818;stroke-width:1;" x1="435.2695" x2="435.2695" y1="394.9141" y2="414.9141"/><polygon fill="#181818" points="431.2695,404.9141,435.2695,414.9141,439.2695,404.9141,435.2695,408.9141" style="stroke:#181818;stroke-width:1;"/><line style="stroke:#181818;stroke-width:1;" x1="435.2695" x2="435.2695" y1="449.0469" y2="469.0469"/><polygon fill="#181818" points="431.2695,459.0469,435.2695,469.0469,439.2695,459.0469,435.2695,463.0469" style="stroke:#181818;stroke-width:1;"/><line style="stroke:#181818;stroke-width:1;" x1="435.2695" x2="435.2695" y1="517.3125" y2="537.3125"/><polygon fill="#181818" points="431.2695,527.3125,435.2695,537.3125,439.2695,527.3125,435.2695,531.3125" style="stroke:#181818;stroke-width:1;"/><line style="stroke:#181818;stroke-width:1;" x1="435.2695" x2="435.2695" y1="707.9766" y2="727.9766"/><polygon fill="#181818" points="431.2695,717.9766,435.2695,727.9766,439.2695,717.9766,435.2695,721.9766" style="stroke:#181818;stroke-width:1;"/><line style="stroke:#181818;stroke-width:1;" x1="188.8418" x2="188.8418" y1="218.3828" y2="223.3828"/><line style="stroke:#181818;stroke-width:1;" x1="188.8418" x2="435.2695" y1="223.3828" y2="223.3828"/><line style="stroke:#181818;stroke-width:1;" x1="435.2695" x2="435.2695" y1="223.3828" y2="238.3828"/><polygon fill="#181818" points="431.2695,228.3828,435.2695,238.3828,439.2695,228.3828,435.2695,232.3828" style="stroke:#181818;stroke-width:1;"/><line style="stroke:#181818;stroke-width:1;" x1="435.2695" x2="435.2695" y1="571.4453" y2="576.4453"/><line style="stroke:#181818;stroke-width:1;" x1="435.2695" x2="188.8418" y1="576.4453" y2="576.4453"/><line style="stroke:#181818;stroke-width:1;" x1="188.8418" x2="188.8418" y1="576.4453" y2="591.4453"/><polygon fill="#181818" points="184.8418,581.4453,188.8418,591.4453,192.8418,581.4453,188.8418,585.4453" style="stroke:#181818;stroke-width:1;"/><line style="stroke:#181818;stroke-width:1;" x1="188.8418" x2="188.8418" y1="653.8438" y2="658.8438"/><line style="stroke:#181818;stroke-width:1;" x1="188.8418" x2="435.2695" y1="658.8438" y2="658.8438"/><line style="stroke:#181818;stroke-width:1;" x1="435.2695" x2="435.2695" y1="658.8438" y2="673.8438"/><polygon fill="#181818" points="431.2695,663.8438,435.2695,673.8438,439.2695,663.8438,435.2695,667.8438" style="stroke:#181818;stroke-width:1;"/><text fill="#000000" font-family="sans-serif" font-size="18" lengthAdjust="spacing" textLength="138.9287" x="121.2251" y="67.1875">nvim Instance A</text><text fill="#000000" font-family="sans-serif" font-size="18" lengthAdjust="spacing" textLength="136.8633" x="368.6855" y="67.1875">nvim Instance B</text><!--SRC=[hP71JiCm38RlUGfh234ERJYXgGMaJboGEF06A4syDYnDGk9C3CgxarQLfY6Et2phz_V_jg-W9_AnuhpJrAUsb6xWR-qnxJLt5eiu26EAIEYBdGl5GGzxRHLlZMlv8BJboadkug6a3sACD1dyJ-9uuON1BY3QiHd1PZKysKZ2IeI6vI8Ggvn72qtDgcUHhEpXiNc1YE60WLKc2GZuddJ0LQQkIZDhrb_U1RhVt6nklwzhbeqwPzIu_UsnPRctE6phfHYEKGRjgSpmF5jv8xAq3IZstcbBvwvA-5L9hkiClfuqw-nQtHaK2iE3QYTCGoIMzD9ej0Ja_jnZ9afdITk4vo0vxTBan26Tvvm9EvtVytVt4ee2rZA5C1bFhVaiq_AdqD1hYY2iWbr-oIT6qCkXwlmBvzaF]--></g></svg>